<?xml version="1.0" encoding="utf-8"?>
<!-- Generator: Adobe Illustrator 13.0.1, SVG Export Plug-In  -->
<!DOCTYPE svg PUBLIC "-//W3C//DTD SVG 1.1//EN" "http://www.w3.org/Graphics/SVG/1.1/DTD/svg11.dtd" [
	<!ENTITY ns_flows "http://ns.adobe.com/Flows/1.0/">
]>
<svg version="1.1"
	 xmlns="http://www.w3.org/2000/svg" xmlns:xlink="http://www.w3.org/1999/xlink" xmlns:a="http://ns.adobe.com/AdobeSVGViewerExtensions/3.0/"
	 x="0px" y="0px" width="173px" height="55px" viewBox="38.192 40.161 173 55" enable-background="new 38.192 40.161 173 55"
	 xml:space="preserve">
<defs>
</defs>
<line fill="none" stroke="#998B7D" stroke-width="0.8" x1="0" y1="82.812" x2="275.021" y2="82.812"/>
<g>
	<path fill-rule="evenodd" clip-rule="evenodd" fill="#998B7D" d="M272.567,0c-40.703,38.087-93.818,59.056-149.604,59.056
		c-41.784,0-82.412-11.809-117.489-34.151c-0.06-0.038-0.12-0.076-0.18-0.114L5.29,25.628
		c35.148,22.333,75.83,34.137,117.673,34.137c56.092,0,109.493-21.133,150.362-59.506l0.281-0.255L272.567,0"/>
</g>
<path fill-rule="evenodd" clip-rule="evenodd" fill="#193989" d="M75.09,92.935h8.756c0.259,0,0.467-0.205,0.467-0.465v-2.611
	c0-0.256-0.208-0.465-0.467-0.465H71.897c-1.098,0-2.733-0.617-3.516-1.392c-0.777-0.78-1.293-2.418-1.293-3.518V72.506
	c0-0.258-0.211-0.467-0.469-0.467h-2.716c-0.26,0-0.469,0.209-0.469,0.467v8.771c0,3.113,1.209,6.043,3.41,8.246
	C69.052,91.724,71.979,92.935,75.09,92.935"/>
<path fill-rule="evenodd" clip-rule="evenodd" fill="#193989" d="M181.764,92.935h8.75c0.264,0,0.473-0.205,0.473-0.465v-2.611
	c0-0.256-0.209-0.465-0.473-0.465h-11.945c-1.1,0-2.737-0.617-3.514-1.392c-0.776-0.78-1.291-2.418-1.291-3.518V72.506
	c0-0.258-0.213-0.467-0.471-0.467h-2.721c-0.261,0-0.469,0.209-0.469,0.467v8.771c0,3.113,1.212,6.043,3.418,8.246
	C175.724,91.724,178.649,92.935,181.764,92.935"/>
<g>
	<path fill-rule="evenodd" clip-rule="evenodd" fill="#193989" d="M78.248,84.781c0.181,0.182,0.478,0.182,0.657,0l8.447-8.447
		c2.121-2.121,5.201-1.787,6.986,0.004l8.471,8.467c0.088,0.087,0.205,0.136,0.33,0.136c0.123,0,0.238-0.049,0.329-0.136
		l1.837-1.834c0.184-0.184,0.184-0.479,0-0.661l-6.204-6.203c-4.548-4.546-11.941-4.546-16.485,0l-6.195,6.192
		c-0.086,0.086-0.135,0.207-0.135,0.328c0,0.125,0.049,0.246,0.135,0.332L78.248,84.781"/>
	<path fill-rule="evenodd" clip-rule="evenodd" fill="#193989" d="M134.438,80.844c-0.182-0.182-0.479-0.182-0.659,0l-8.45,8.449
		c-2.117,2.117-5.195,1.789-6.981-0.002l-8.468-8.471c-0.09-0.088-0.209-0.133-0.332-0.133c-0.125,0-0.246,0.045-0.329,0.133
		l-1.838,1.838c-0.182,0.184-0.182,0.477,0,0.66l6.201,6.201c4.547,4.545,11.944,4.545,16.49,0l6.19-6.191
		c0.089-0.084,0.139-0.207,0.139-0.328c0-0.125-0.05-0.244-0.139-0.334L134.438,80.844"/>
</g>
<path fill-rule="evenodd" clip-rule="evenodd" fill="#193989" d="M140.342,84.781c0.181,0.182,0.476,0.182,0.658,0l8.451-8.447
	c2.112-2.121,5.19-1.787,6.979,0.004l8.47,8.467c0.084,0.087,0.205,0.136,0.334,0.136c0.117,0,0.239-0.049,0.328-0.136l1.834-1.834
	c0.186-0.184,0.186-0.479,0-0.661l-6.203-6.203c-4.546-4.546-11.943-4.546-16.486,0l-6.192,6.192
	c-0.088,0.086-0.136,0.207-0.136,0.328c0,0.125,0.048,0.246,0.136,0.332L140.342,84.781"/>
<path fill-rule="evenodd" clip-rule="evenodd" fill="#193989" d="M114.428,71.178h8.756c0.258,0,0.467-0.209,0.467-0.467v-2.607
	c0-0.258-0.209-0.467-0.467-0.467h-11.949c-1.104,0-2.735-0.619-3.516-1.393c-0.776-0.781-1.297-2.418-1.297-3.517V50.75
	c0-0.259-0.207-0.468-0.467-0.468h-2.719c-0.26,0-0.47,0.209-0.47,0.468v8.77c0,3.115,1.213,6.043,3.416,8.244
	C108.382,69.967,111.31,71.178,114.428,71.178"/>
<path fill-rule="evenodd" clip-rule="evenodd" fill="#193989" d="M73.42,62.979c0.184,0.179,0.48,0.179,0.66,0l8.451-8.447
	c2.115-2.122,5.191-1.789,6.984,0L97.982,63c0.086,0.088,0.207,0.137,0.331,0.137S98.56,63.088,98.645,63l1.838-1.834
	c0.181-0.183,0.181-0.478,0-0.662l-6.205-6.201c-4.543-4.547-11.937-4.547-16.486,0l-6.193,6.189
	c-0.086,0.088-0.137,0.207-0.137,0.33c0,0.125,0.051,0.245,0.137,0.331L73.42,62.979"/>
<path fill-rule="evenodd" clip-rule="evenodd" fill="#193989" d="M126.875,71.311h2.636c0.258,0,0.468-0.209,0.468-0.467V58.897
	c0-1.498,0.607-2.715,1.387-3.494c0.774-0.78,1.897-1.397,3.497-1.397h11.976c0.255,0,0.461-0.209,0.461-0.467v-2.64
	c0-0.26-0.206-0.467-0.461-0.467h-8.775c-6.423,0-11.654,5.232-11.654,11.658v8.754C126.408,71.102,126.617,71.311,126.875,71.311"
	/>
<path fill-rule="evenodd" clip-rule="evenodd" fill="#193989" d="M145.99,62.979c0.182,0.179,0.471,0.179,0.659,0l8.45-8.447
	c2.113-2.122,5.189-1.789,6.977,0L170.549,63c0.088,0.088,0.207,0.137,0.332,0.137s0.242-0.049,0.328-0.137l1.836-1.834
	c0.188-0.183,0.188-0.478,0-0.662l-6.196-6.201c-4.55-4.547-11.942-4.547-16.492,0l-6.19,6.189c-0.088,0.088-0.137,0.207-0.137,0.33
	c0,0.125,0.049,0.245,0.137,0.331L145.99,62.979"/>
</svg>
